<?xml version="1.0" standalone="no"?>
<!DOCTYPE svg PUBLIC "-//W3C//DTD SVG 20010904//EN"
 "http://www.w3.org/TR/2001/REC-SVG-20010904/DTD/svg10.dtd">
<svg version="1.0" xmlns="http://www.w3.org/2000/svg"
 width="534.000000pt" height="539.000000pt" viewBox="0 0 534.000000 539.000000"
 preserveAspectRatio="xMidYMid meet">
<metadata>
Created by potrace 1.16, written by Peter Selinger 2001-2019
</metadata>
<g transform="translate(0.000000,539.000000) scale(0.100000,-0.100000)"
fill="#000000" stroke="none">
<path d="M0 2695 l0 -2695 2670 0 2670 0 0 2695 0 2695 -2670 0 -2670 0 0
-2695z m3020 2311 c58 -9 162 -32 231 -51 687 -185 1231 -628 1539 -1257 167
-339 243 -667 243 -1048 0 -382 -76 -709 -243 -1048 -339 -690 -978 -1168
-1732 -1297 -853 -146 -1725 184 -2258 855 -122 154 -193 266 -280 443 -120
242 -198 505 -231 772 -15 129 -15 421 0 550 33 268 110 528 231 773 260 530
691 934 1235 1156 205 83 398 134 612 161 142 18 509 13 653 -9z"/>
<path d="M2460 4844 c-463 -56 -816 -196 -1165 -463 -86 -65 -245 -221 -333
-326 -220 -261 -389 -611 -457 -943 -37 -177 -47 -281 -47 -462 0 -91 5 -205
11 -255 84 -654 423 -1207 966 -1574 134 -90 187 -119 338 -185 330 -144 680
-204 1035 -178 272 20 488 73 732 179 143 62 200 93 320 174 553 369 897 925
981 1584 6 50 11 164 11 255 0 91 -5 206 -11 255 -67 522 -295 980 -665 1333
-240 228 -489 381 -802 492 -225 79 -410 111 -679 115 -110 2 -216 1 -235 -1z
m-16 -311 c3 -10 32 -153 66 -318 188 -923 352 -1702 360 -1720 7 -13 9 323 6
1018 l-5 1038 32 -6 c18 -2 61 -10 97 -15 36 -6 100 -21 143 -32 l77 -21 0
-1828 0 -1828 -71 -22 c-39 -12 -117 -29 -173 -39 -93 -16 -102 -16 -108 -1
-4 9 -25 106 -47 216 -154 761 -373 1813 -381 1830 -7 13 -9 -319 -6 -1021 l5
-1041 -87 14 c-87 14 -121 21 -220 49 l-52 15 2 1827 3 1826 60 18 c51 16 243
55 282 57 6 1 14 -7 17 -16z m-594 -653 l0 -560 -180 0 -180 0 0 213 -1 212
-36 -40 c-187 -210 -312 -459 -375 -745 -19 -91 -22 -133 -22 -315 0 -182 3
-224 22 -315 41 -187 101 -341 198 -505 49 -84 162 -234 198 -264 15 -12 16
27 16 438 l0 451 -110 0 -110 0 0 180 0 180 290 0 290 0 0 -975 c0 -657 -3
-975 -10 -975 -23 0 -174 83 -267 146 -135 93 -222 165 -334 280 -307 317
-491 711 -540 1155 -18 161 -6 436 26 587 109 524 402 954 860 1263 62 42 247
147 263 149 1 0 2 -252 2 -560z m1840 433 c199 -129 342 -255 488 -428 284
-338 442 -782 442 -1243 0 -167 -11 -263 -45 -418 -51 -225 -130 -427 -233
-591 l-38 -62 -147 97 c-81 53 -147 100 -147 105 0 4 20 42 45 85 86 149 168
386 190 550 l7 52 -216 0 -216 0 0 -702 -1 -703 -70 -43 c-74 -47 -269 -151
-281 -152 -5 0 -8 806 -8 1790 l0 1790 73 -36 c39 -20 110 -61 157 -91z"/>
<path d="M3820 3285 l0 -465 216 0 216 0 -7 58 c-35 288 -180 597 -387 829
l-38 43 0 -465z"/>
</g>
</svg>
